HIERARCHY
ROOT Hips
{
  OFFSET 0.0 0.0 0.0
  CHANNELS 6 XPOSITION YPOSITION ZPOSITION ZROTATION XROTATION YROTATION 
  JOINT RightUpLeg
  {
    OFFSET -0.089458038 -0.086670642 0.001016508
    CHANNELS 3 ZROTATION XROTATION YROTATION 
    JOINT RightLeg
    {
      OFFSET 1.524e-006 -0.44256706 0.04075049
      CHANNELS 3 ZROTATION XROTATION YROTATION 
      JOINT RightFoot
      {
        OFFSET 0.001563116 -0.419119812 -0.0416306
        CHANNELS 3 ZROTATION XROTATION YROTATION 
        End Site
        {
          OFFSET 7.5692e-005 -0.04415155 0.084991702
        }
      }
    }
  }
  JOINT Spine
  {
    OFFSET 0.0 0.11890502 0.0
    CHANNELS 3 ZROTATION XROTATION YROTATION 
    JOINT Spine1
    {
      OFFSET 0.0 0.256575052 0.001270508
      CHANNELS 3 ZROTATION XROTATION YROTATION 
      End Site
      {
        OFFSET -0.0029 0.2150836 0.02525291
      }
      JOINT RightArm
      {
        OFFSET -0.16272758 -0.05365633 0.001021842
        CHANNELS 3 ZROTATION XROTATION YROTATION 
        JOINT RightForeArm
        {
          OFFSET -0.263648698 -0.000263906 -0.014099794
          CHANNELS 3 ZROTATION XROTATION YROTATION 
          End Site
          {
            OFFSET -0.220319092 0.001914652 0.010174732
          }
        }
      }
      JOINT LeftArm
      {
        OFFSET 0.16272758 -0.05365633 0.001020826
        CHANNELS 3 ZROTATION XROTATION YROTATION 
        JOINT LeftForeArm
        {
          OFFSET 0.26260552 -0.000263144 -0.01410081
          CHANNELS 3 ZROTATION XROTATION YROTATION 
          End Site
          {
            OFFSET 0.220897958 0.001915922 0.01017524
          }
        }
      }
    }
  }
  JOINT LeftUpLeg
  {
    OFFSET 0.089458038 -0.086670642 0.001016508
    CHANNELS 3 ZROTATION XROTATION YROTATION 
    JOINT LeftLeg
    {
      OFFSET -3.048e-006 -0.442569346 0.040725598
      CHANNELS 3 ZROTATION XROTATION YROTATION 
      JOINT LeftFoot
      {
        OFFSET -0.002532888 -0.41911778 -0.041605708
        CHANNELS 3 ZROTATION XROTATION YROTATION 
        End Site
        {
          OFFSET -0.00040005 -0.044151042 0.084991194
        }
      }
    }
  }
}
MOTION
Frames: 16
Frame Time: 0.033333
-0.2585974 0.944588819371 -0.56501792 -5.6155834601 1.03379374055 -46.9278733719 -2.680116498 -20.9904912535 -4.71031402949 4.56444893646 -0.404698286596 -8.41261166579 8.281599246 -29.2740814996 -0.942700681533 2.21133393483 4.45211708405 -1.48157155103 3.61391669599 10.2651152093 -2.47554849037 71.3009253118 8.87583765662 0.381145900028 5.3839439977 11.4133101361 5.02011903052 -76.9018921671 14.6393339858 -13.2542689524 24.1359999795 23.3628225655 -46.621877482 -4.10744951683 16.2120670045 5.3160664315 -1.29708088447 13.3504824121 -1.89153508638 12.316564234 -51.3559567278 1.94680753847 
-0.29621734 0.937319339371 -0.54093364 -6.00274931811 1.4964440745 -45.4338343778 -1.07655392641 -22.5543108753 -6.23830973598 3.91994417553 6.85944756598 -7.83734752068 5.91386550512 -26.8892782623 -0.792486518912 3.49887923489 3.90765026191 -1.85822147904 3.96317671165 10.4856978761 -2.98204287582 70.4098451723 7.22277990577 2.60592805045 5.51483731607 9.0705876942 4.37896447738 -76.830687445 14.1632407724 -13.1725150031 22.0097552607 23.5814330151 -43.4771627655 -2.75431497739 17.7464536336 4.73100309937 -0.228972540332 15.8720396971 -2.95464037032 9.98111594359 -52.2035934491 1.73319433267 
-0.33538668 0.933458539371 -0.5143246 -6.81782482007 2.27317766923 -44.2088433652 1.41732241611 -23.653947426 -10.3896713928 1.90926647091 13.4843925396 -2.80714264863 2.61650182362 -23.7008383822 -0.414457212858 6.10077064355 3.22431374111 -2.06276686166 3.61573480697 10.5491392344 -3.05345634558 69.9513004224 6.51976347554 4.00298262725 5.55356278111 7.11773799964 4.92101554698 -76.9327441316 14.5143398165 -12.3865907485 19.3265752094 23.8478052701 -39.1751442111 -0.32571493953 18.6174393566 3.54681969235 -0.00595679707269 19.7004939155 -3.44464561189 5.19122124564 -51.3507691991 0.935097186883 
-0.37471858 0.932325699371 -0.48763174 -7.75136739186 2.87955311256 -43.7285615382 3.97852371983 -24.5657862179 -10.748973494 -0.179728704025 19.8259679057 -0.765580589502 -1.07415653001 -23.2255682066 0.195873777119 9.23766265903 3.02728113969 -1.8751176595 2.49554899181 10.4121614981 -2.37269267166 70.0343555227 6.4067131726 5.11551030624 5.38816249329 6.56479192453 6.01377495097 -77.2447130219 15.3043843827 -10.736081512 16.5530761516 23.689927155 -34.7942711227 2.59145061073 17.3498296712 3.43632153229 -0.31486689158 27.1436874409 -5.37178156522 -0.93547551533 -45.9200311485 0.115573457523 
-0.41228264 0.931972639371 -0.46285658 -8.32420425849 3.12681855368 -43.1896186316 5.67987688453 -24.5161358653 -7.5753354877 -0.670634396654 25.2116676889 -3.57061564453 -3.5634877018 -26.202944996 0.52271805908 11.7936466587 3.2526660698 -1.70284406693 1.03548346532 10.134843865 -1.51179481794 70.5202415199 6.66000903043 6.89159854707 5.09932916121 6.9447796806 7.07910132705 -77.475648548 16.212283863 -8.59214660322 14.0607751282 22.8404701883 -31.2247937719 5.36278834052 12.6428346867 2.7361919242 -0.688106287355 38.5437990902 -7.78475164898 -5.62930104127 -33.9068622099 0.42412545235 
-0.44495974 0.931078559371 -0.44089066 -8.80455097225 3.50840670846 -41.534349607 6.53913389202 -23.6389244249 -7.51890361101 -0.853930740603 28.8465867897 -5.27074129617 -4.02856723522 -30.5979736514 0.401622647077 14.3261988407 3.57509774273 -1.96692927576 0.000270481864211 10.1616395509 -1.04661912827 70.7938725584 7.52511993693 9.48236955398 4.93546182397 6.89577862284 8.48250840666 -77.4048741278 17.8495433863 -6.83843064702 11.7782018935 21.4426839275 -28.1765315717 7.7448317546 5.01684822368 0.261501823182 -1.03595144 50.8600508431 -8.87894112382 -8.01473777871 -20.8791762455 1.46202397651 
-0.47584868 0.934809819371 -0.4183507 -9.19064534433 3.67091675905 -39.7717783105 6.62370486744 -21.4178647276 -9.89349059295 -0.833383557228 30.0449366494 -4.7957016394 -3.44911042118 -34.1181336213 0.195559188211 16.3812524978 3.76178260756 -2.0134398758 -0.653696327925 10.4325086317 -0.562193991162 70.1097471508 9.82211682367 12.1245334655 4.79775154992 5.01755344071 11.1968580262 -77.4003935237 20.2033512253 -5.82706020407 9.58955058998 20.2238810663 -25.0143384011 8.95780675685 -2.61542115962 -1.92760873049 -1.1184440102 60.2185677231 -7.6433394124 -8.15241219426 -15.7379255176 1.84571390856 
-0.50931826 0.946562399371 -0.39346886 -8.92939829254 2.94657028837 -39.5296822554 6.12193611912 -17.3338128776 -11.8949622698 -0.636916580847 28.5480853248 -3.07701132015 -2.95958542728 -36.1226541238 0.0911165444671 16.5741848513 3.952519909 -1.21098069373 -1.52179592243 10.4785876491 0.514073440829 68.3340550609 14.2396731505 14.3293970768 4.39634816259 0.639343005549 15.3209766197 -78.0108690015 20.8494051585 -4.77650539273 7.60549931063 20.7867945219 -22.0500038579 8.86556334456 -8.49528598305 -1.68327408085 -0.534609151621 64.8789423976 -4.40062215346 -5.91815272948 -18.2965160882 1.22030155407 
-0.54318408 0.959158259371 -0.36851844 -8.17956304999 1.81652274727 -40.3814853921 5.35537118197 -12.6935035913 -12.6278364451 -0.268961030086 26.034097597 -1.5055985557 -2.60054372695 -37.5724847186 0.0281358703884 15.7053677134 4.30129241991 -0.108906739326 -2.63255938491 10.2250988385 1.86431934386 66.4907919096 18.4787199221 16.2978319824 3.83453607505 -3.84869249588 19.6696812246 -79.0595216052 19.1985433134 -2.88396285345 5.96394103702 22.571142169 -19.7471321547 8.1852645504 -13.0797849398 0.0877773090046 0.483651991709 65.2405121217 -0.932676204987 -3.07685038382 -23.2439482456 0.484093285963 
-0.57567322 0.968899159371 -0.34357056 -7.30727702976 0.868148473051 -41.0948371792 4.34691637602 -8.35332562379 -12.2402360163 0.793738417881 23.5018117924 -1.23746485896 -2.29014087092 -38.9690876491 -0.0232801811852 14.9642580375 4.51309018277 0.672786173047 -3.85104891114 9.74000685079 2.8694960859 65.701201551 19.6979103965 18.0703275437 3.43903824003 -5.57931729004 23.4389279483 -79.9102763078 17.4324920356 -0.336431746461 4.67386856696 23.7401290454 -18.0586530428 7.19973057864 -17.1401684769 1.35781567362 1.05492719962 62.3534184803 1.30198165192 -1.42849521821 -26.5805759099 0.179916107341 
-0.60684664 0.977547859371 -0.31831534 -6.37817066584 0.179884317613 -41.5324508144 3.18066157524 -4.19138656531 -11.0381910243 2.37105150527 20.4903216232 -1.95834564897 -2.00138395159 -39.9171793776 -0.0528050028913 14.414560998 4.45383018087 1.19791795695 -5.22417178575 9.24045108376 3.5388808781 65.7869682364 18.3792672451 19.5532008861 3.27753265413 -4.77211742308 26.9711295417 -80.4673738573 16.3997810935 2.24273636987 3.70227031555 24.6325735152 -16.7860351212 6.02198483836 -20.5557360525 2.18177202233 1.01915002842 56.570946178 1.93053632032 -1.1216634839 -28.4488256007 0.132955315125 
-0.6366383 0.983206979371 -0.29311092 -5.57637305162 -0.243298888797 -42.1954675224 2.21717950955 -0.376546061107 -9.6936110833 3.64789133758 17.5617601958 -2.39750290694 -1.53698114051 -40.7791663263 -0.0722367276624 14.1471650684 4.28629759336 1.70988385753 -6.63323212756 9.00835527935 4.18126379808 65.6151411675 17.3020712809 21.0223865294 3.14763206107 -3.87339003303 30.5942511983 -80.9865023851 15.6772751453 4.53828546996 3.10185720047 25.8255019122 -15.8264942881 5.30304424896 -22.9327033553 3.91180216315 0.708568733696 48.1917179155 1.33106929316 -1.8185609184 -29.4986273837 0.208647604909 
-0.6657594 0.983900399371 -0.26735024 -5.03058416099 -0.297471867188 -43.009318713 1.75695698768 2.89442947802 -8.76857465835 4.35156090465 15.4679110642 -2.25263011233 -1.16925794958 -42.0629516072 -0.0944223426851 14.3797628917 3.87892590135 2.1695724507 -7.91912366807 9.15579515787 4.77193599618 65.0845515822 16.7877887723 22.5739015654 2.95925971263 -3.13193436537 33.9867754232 -81.5590225017 14.8020769032 6.55445357945 2.73720407285 26.9160799246 -15.0713161301 5.15486969822 -24.2573843939 6.64126144182 0.429359138162 37.913270177 0.386087888738 -2.85094956098 -29.5303980086 0.32329870675 
-0.6950075 0.982648179371 -0.24086312 -4.50499896992 -0.157353151047 -43.6866071013 1.57998251742 6.01628120351 -8.26151848984 4.66537223852 13.4402020695 -2.02549430591 -1.44990487305 -43.3150174897 -0.12974292508 14.591049671 3.10167214503 2.53311311126 -9.11158419714 9.64440554675 5.23245467078 64.5008436157 16.6428589883 23.9782772512 2.69004737961 -2.47514358822 36.8241145516 -82.1118033717 13.7144572166 8.3388797737 2.32272343458 27.4981008343 -14.2886951257 4.67670224169 -24.566600718 9.72249766085 0.465520027258 25.9669295167 -1.04756500275 -3.27006384227 -29.0298510104 0.381305075452 
-0.72433434 0.980773659371 -0.2139696 -3.9813561139 -0.13885299671 -44.4171641349 1.28593839134 9.29308622905 -8.28671078882 4.80690314963 11.2630980546 -1.29463802463 -1.89244905107 -44.441250797 -0.177739011223 14.3208542177 2.37631672735 2.87117118979 -10.1380489313 10.2835362295 5.69792480564 63.9888594657 16.7882361497 25.0090569573 2.23341956496 -1.76891504809 38.8470868101 -82.6227698235 12.4897488031 9.92763470861 1.8314987908 27.7404615593 -13.4076673172 3.94483936128 -23.7503196877 10.5371138326 -0.932419752728 12.6963312896 -0.944393714673 -2.97910482726 -28.3996123802 0.361620897151 
-0.75416664 0.974807199371 -0.18526506 -3.861708702 -0.243018130669 -45.3506221831 0.885209004937 12.5113339084 -8.89036717653 4.94209436454 10.3199326 0.489011022165 -1.40535293647 -46.0684374988 -0.187806816782 14.0400079381 2.0919321963 3.15250305317 -10.8546450582 10.7779650857 6.15101650329 63.550757472 17.3120143288 25.7774498239 1.68411686216 -1.10971865698 39.5850853349 -83.0927961214 11.134604267 11.3024075008 1.46850529243 27.8583847753 -12.5864318383 4.68002897071 -22.2770837422 3.94896138044 -3.71343084465 1.16911419544 6.42434317151 -2.77875339424 -28.1461662582 0.341821832933 
